<svg width="1728" height="1117" viewBox="0 0 1728 1117" fill="none" xmlns="http://www.w3.org/2000/svg">
<g clip-path="url(#clip0_1242_2164)">
<rect width="1728" height="1117" fill="#161515"/>
<rect x="-53" width="1849" height="1118" fill="#131313"/>
<g opacity="0.1">
<mask id="path-2-outside-1_1242_2164" maskUnits="userSpaceOnUse" x="699" y="233" width="421" height="723" fill="black">
<rect fill="white" x="699" y="233" width="421" height="723"/>
<path d="M891.412 955L700.711 622.03V577.634H722.909C758.56 577.634 788.494 574.271 812.71 567.544C837.599 560.817 857.106 549.718 871.232 534.247C885.358 518.776 893.766 497.587 896.457 470.68H700.711V406.104H895.448C890.739 381.215 881.322 361.035 867.196 345.564C853.07 329.42 833.899 317.648 809.683 310.249C786.14 302.85 757.215 299.15 722.909 299.15H700.711V234.574H1118.44V299.15H927.736C943.207 311.931 955.988 327.066 966.078 344.555C976.168 362.044 982.558 382.561 985.249 406.104H1118.44V470.68H987.267C982.558 519.785 963.724 558.127 930.763 585.706C898.475 612.613 855.424 629.766 801.611 637.165L994.33 955H891.412Z"/>
</mask>
<path d="M891.412 955L700.711 622.03V577.634H722.909C758.56 577.634 788.494 574.271 812.71 567.544C837.599 560.817 857.106 549.718 871.232 534.247C885.358 518.776 893.766 497.587 896.457 470.68H700.711V406.104H895.448C890.739 381.215 881.322 361.035 867.196 345.564C853.07 329.42 833.899 317.648 809.683 310.249C786.14 302.85 757.215 299.15 722.909 299.15H700.711V234.574H1118.44V299.15H927.736C943.207 311.931 955.988 327.066 966.078 344.555C976.168 362.044 982.558 382.561 985.249 406.104H1118.44V470.68H987.267C982.558 519.785 963.724 558.127 930.763 585.706C898.475 612.613 855.424 629.766 801.611 637.165L994.33 955H891.412Z" fill="#0E0D0D"/>
<path d="M891.412 955L890.544 955.497L890.832 956H891.412V955ZM700.711 622.03H699.711V622.296L699.843 622.527L700.711 622.03ZM700.711 577.634V576.634H699.711V577.634H700.711ZM812.71 567.544L812.449 566.579L812.442 566.58L812.71 567.544ZM871.232 534.247L870.494 533.573V533.573L871.232 534.247ZM896.457 470.68L897.452 470.779L897.562 469.68H896.457V470.68ZM700.711 470.68H699.711V471.68H700.711V470.68ZM700.711 406.104V405.104H699.711V406.104H700.711ZM895.448 406.104V407.104H896.655L896.431 405.918L895.448 406.104ZM867.196 345.564L866.443 346.222L866.45 346.23L866.458 346.238L867.196 345.564ZM809.683 310.249L809.383 311.203L809.391 311.205L809.683 310.249ZM700.711 299.15H699.711V300.15H700.711V299.15ZM700.711 234.574V233.574H699.711V234.574H700.711ZM1118.44 234.574H1119.44V233.574H1118.44V234.574ZM1118.44 299.15V300.15H1119.44V299.15H1118.44ZM927.736 299.15V298.15H924.955L927.099 299.921L927.736 299.15ZM966.078 344.555L965.212 345.055V345.055L966.078 344.555ZM985.249 406.104L984.255 406.218L984.357 407.104H985.249V406.104ZM1118.44 406.104H1119.44V405.104H1118.44V406.104ZM1118.44 470.68V471.68H1119.44V470.68H1118.44ZM987.267 470.68V469.68H986.358L986.272 470.585L987.267 470.68ZM930.763 585.706L931.403 586.474L931.405 586.473L930.763 585.706ZM801.611 637.165L801.475 636.174L799.967 636.382L800.756 637.683L801.611 637.165ZM994.33 955V956H996.106L995.185 954.482L994.33 955ZM891.412 955L892.28 954.503L701.579 621.533L700.711 622.03L699.843 622.527L890.544 955.497L891.412 955ZM700.711 622.03H701.711V577.634H700.711H699.711V622.03H700.711ZM700.711 577.634V578.634H722.909V577.634V576.634H700.711V577.634ZM722.909 577.634V578.634C758.616 578.634 788.647 575.266 812.978 568.508L812.71 567.544L812.442 566.58C788.341 573.275 758.504 576.634 722.909 576.634V577.634ZM812.71 567.544L812.971 568.509C838.001 561.745 857.689 550.562 871.97 534.921L871.232 534.247L870.494 533.573C856.523 548.874 837.197 559.89 812.449 566.579L812.71 567.544ZM871.232 534.247L871.97 534.921C886.279 519.25 894.746 497.838 897.452 470.779L896.457 470.68L895.462 470.58C892.786 497.335 884.437 518.301 870.494 533.573L871.232 534.247ZM896.457 470.68V469.68H700.711V470.68V471.68H896.457V470.68ZM700.711 470.68H701.711V406.104H700.711H699.711V470.68H700.711ZM700.711 406.104V407.104H895.448V406.104V405.104H700.711V406.104ZM895.448 406.104L896.431 405.918C891.695 380.885 882.21 360.524 867.935 344.89L867.196 345.564L866.458 346.238C880.435 361.546 889.784 381.545 894.465 406.29L895.448 406.104ZM867.196 345.564L867.949 344.905C853.679 328.598 834.337 316.736 809.975 309.293L809.683 310.249L809.391 311.205C833.461 318.56 852.461 330.242 866.443 346.222L867.196 345.564ZM809.683 310.249L809.983 309.295C786.313 301.856 757.28 298.15 722.909 298.15V299.15V300.15C757.15 300.15 785.966 303.843 809.383 311.203L809.683 310.249ZM722.909 299.15V298.15H700.711V299.15V300.15H722.909V299.15ZM700.711 299.15H701.711V234.574H700.711H699.711V299.15H700.711ZM700.711 234.574V235.574H1118.44V234.574V233.574H700.711V234.574ZM1118.44 234.574H1117.44V299.15H1118.44H1119.44V234.574H1118.44ZM1118.44 299.15V298.15H927.736V299.15V300.15H1118.44V299.15ZM927.736 299.15L927.099 299.921C942.478 312.625 955.181 327.668 965.212 345.055L966.078 344.555L966.944 344.055C956.795 326.463 943.937 311.236 928.373 298.379L927.736 299.15ZM966.078 344.555L965.212 345.055C975.223 362.407 981.578 382.787 984.255 406.218L985.249 406.104L986.243 405.99C983.539 382.334 977.113 361.682 966.944 344.055L966.078 344.555ZM985.249 406.104V407.104H1118.44V406.104V405.104H985.249V406.104ZM1118.44 406.104H1117.44V470.68H1118.44H1119.44V406.104H1118.44ZM1118.44 470.68V469.68H987.267V470.68V471.68H1118.44V470.68ZM987.267 470.68L986.272 470.585C981.584 519.469 962.85 557.554 930.121 584.939L930.763 585.706L931.405 586.473C964.597 558.7 983.533 520.1 988.262 470.775L987.267 470.68ZM930.763 585.706L930.123 584.938C898.015 611.694 855.156 628.793 801.475 636.174L801.611 637.165L801.747 638.156C855.693 630.738 898.935 613.531 931.403 586.474L930.763 585.706ZM801.611 637.165L800.756 637.683L993.475 955.518L994.33 955L995.185 954.482L802.466 636.646L801.611 637.165ZM994.33 955V954H891.412V955V956H994.33V955Z" fill="url(#paint0_linear_1242_2164)" mask="url(#path-2-outside-1_1242_2164)"/>
</g>
<g opacity="0.7">
<rect opacity="0.7" x="1148" y="411" width="912" height="155" rx="0.3" transform="rotate(-90 1148 411)" fill="url(#paint1_linear_1242_2164)" stroke="#797777" stroke-linecap="round"/>
<rect opacity="0.34" width="774" height="155" rx="0.3" transform="matrix(0 1 1 0 1310 -411)" fill="url(#paint2_linear_1242_2164)" stroke="#797777" stroke-linecap="round"/>
<rect opacity="0.34" width="774" height="155" rx="0.3" transform="matrix(0 1 1 0 1378 -226)" fill="url(#paint3_linear_1242_2164)" stroke="#797777" stroke-linecap="round"/>
<rect opacity="0.34" width="666" height="155" rx="0.3" transform="matrix(0 1 1 0 1071 -431)" fill="url(#paint4_linear_1242_2164)" stroke="#797777" stroke-linecap="round"/>
</g>
<g opacity="0.7">
<rect opacity="0.7" x="227" y="1077" width="912" height="155" rx="0.3" transform="rotate(-90 227 1077)" fill="url(#paint5_linear_1242_2164)" stroke="#797777" stroke-linecap="round"/>
<rect opacity="0.34" width="774" height="155" rx="0.3" transform="matrix(0 1 1 0 389 255)" fill="url(#paint6_linear_1242_2164)" stroke="#797777" stroke-linecap="round"/>
<rect opacity="0.34" width="774" height="155" rx="0.3" transform="matrix(0 1 1 0 457 440)" fill="url(#paint7_linear_1242_2164)" stroke="#797777" stroke-linecap="round"/>
<rect opacity="0.34" width="666" height="155" rx="0.3" transform="matrix(0 1 1 0 150 235)" fill="url(#paint8_linear_1242_2164)" stroke="#797777" stroke-linecap="round"/>
</g>
</g>
<defs>
<linearGradient id="paint0_linear_1242_2164" x1="894" y1="-9" x2="894" y2="967" gradientUnits="userSpaceOnUse">
<stop stop-color="#FFDE24"/>
<stop offset="1" stop-color="#FFF3AC"/>
</linearGradient>
<linearGradient id="paint1_linear_1242_2164" x1="2132.84" y1="416.851" x2="2044.24" y2="688.329" gradientUnits="userSpaceOnUse">
<stop/>
<stop offset="1" stop-opacity="0"/>
</linearGradient>
<linearGradient id="paint2_linear_1242_2164" x1="835.815" y1="5.85084" x2="735.185" y2="267.546" gradientUnits="userSpaceOnUse">
<stop/>
<stop offset="1" stop-opacity="0"/>
</linearGradient>
<linearGradient id="paint3_linear_1242_2164" x1="835.815" y1="5.85084" x2="735.185" y2="267.546" gradientUnits="userSpaceOnUse">
<stop/>
<stop offset="1" stop-opacity="0"/>
</linearGradient>
<linearGradient id="paint4_linear_1242_2164" x1="719.189" y1="5.85084" x2="607.295" y2="256.238" gradientUnits="userSpaceOnUse">
<stop/>
<stop offset="1" stop-opacity="0"/>
</linearGradient>
<linearGradient id="paint5_linear_1242_2164" x1="1211.84" y1="1082.85" x2="1123.24" y2="1354.33" gradientUnits="userSpaceOnUse">
<stop/>
<stop offset="1" stop-opacity="0"/>
</linearGradient>
<linearGradient id="paint6_linear_1242_2164" x1="835.815" y1="5.85084" x2="735.185" y2="267.546" gradientUnits="userSpaceOnUse">
<stop/>
<stop offset="1" stop-opacity="0"/>
</linearGradient>
<linearGradient id="paint7_linear_1242_2164" x1="835.815" y1="5.85084" x2="735.185" y2="267.546" gradientUnits="userSpaceOnUse">
<stop/>
<stop offset="1" stop-opacity="0"/>
</linearGradient>
<linearGradient id="paint8_linear_1242_2164" x1="719.189" y1="5.85084" x2="607.295" y2="256.238" gradientUnits="userSpaceOnUse">
<stop/>
<stop offset="1" stop-opacity="0"/>
</linearGradient>
<clipPath id="clip0_1242_2164">
<rect width="1728" height="1117" fill="white"/>
</clipPath>
</defs>
</svg>
