<svg width="1384" height="1716" viewBox="0 0 1384 1716" fill="none" xmlns="http://www.w3.org/2000/svg">
<g opacity="0.7">
<rect opacity="0.7" x="998.5" y="912.5" width="912" height="155" rx="0.3" transform="rotate(-90 998.5 912.5)" fill="url(#paint0_linear_1242_2197)" stroke="#797777" stroke-linecap="round"/>
<rect opacity="0.34" width="774" height="155" rx="0.3" transform="matrix(0 1 1 0 1160.5 90.5)" fill="url(#paint1_linear_1242_2197)" stroke="#797777" stroke-linecap="round"/>
<rect opacity="0.34" width="774" height="155" rx="0.3" transform="matrix(0 1 1 0 1228.5 275.5)" fill="url(#paint2_linear_1242_2197)" stroke="#797777" stroke-linecap="round"/>
<rect opacity="0.34" width="666" height="155" rx="0.3" transform="matrix(0 1 1 0 921.5 70.5)" fill="url(#paint3_linear_1242_2197)" stroke="#797777" stroke-linecap="round"/>
</g>
<g opacity="0.7">
<rect opacity="0.7" x="77.5" y="1578.5" width="912" height="155" rx="0.3" transform="rotate(-90 77.5 1578.5)" fill="url(#paint4_linear_1242_2197)" stroke="#797777" stroke-linecap="round"/>
<rect opacity="0.34" width="774" height="155" rx="0.3" transform="matrix(0 1 1 0 239.5 756.5)" fill="url(#paint5_linear_1242_2197)" stroke="#797777" stroke-linecap="round"/>
<rect opacity="0.34" width="774" height="155" rx="0.3" transform="matrix(0 1 1 0 307.5 941.5)" fill="url(#paint6_linear_1242_2197)" stroke="#797777" stroke-linecap="round"/>
<rect opacity="0.34" width="666" height="155" rx="0.3" transform="matrix(0 1 1 0 0.5 736.5)" fill="url(#paint7_linear_1242_2197)" stroke="#797777" stroke-linecap="round"/>
</g>
<defs>
<linearGradient id="paint0_linear_1242_2197" x1="1983.34" y1="918.351" x2="1894.74" y2="1189.83" gradientUnits="userSpaceOnUse">
<stop/>
<stop offset="1" stop-opacity="0"/>
</linearGradient>
<linearGradient id="paint1_linear_1242_2197" x1="835.815" y1="5.85084" x2="735.185" y2="267.546" gradientUnits="userSpaceOnUse">
<stop/>
<stop offset="1" stop-opacity="0"/>
</linearGradient>
<linearGradient id="paint2_linear_1242_2197" x1="835.815" y1="5.85084" x2="735.185" y2="267.546" gradientUnits="userSpaceOnUse">
<stop/>
<stop offset="1" stop-opacity="0"/>
</linearGradient>
<linearGradient id="paint3_linear_1242_2197" x1="719.189" y1="5.85084" x2="607.295" y2="256.238" gradientUnits="userSpaceOnUse">
<stop/>
<stop offset="1" stop-opacity="0"/>
</linearGradient>
<linearGradient id="paint4_linear_1242_2197" x1="1062.34" y1="1584.35" x2="973.74" y2="1855.83" gradientUnits="userSpaceOnUse">
<stop/>
<stop offset="1" stop-opacity="0"/>
</linearGradient>
<linearGradient id="paint5_linear_1242_2197" x1="835.815" y1="5.85084" x2="735.185" y2="267.546" gradientUnits="userSpaceOnUse">
<stop/>
<stop offset="1" stop-opacity="0"/>
</linearGradient>
<linearGradient id="paint6_linear_1242_2197" x1="835.815" y1="5.85084" x2="735.185" y2="267.546" gradientUnits="userSpaceOnUse">
<stop/>
<stop offset="1" stop-opacity="0"/>
</linearGradient>
<linearGradient id="paint7_linear_1242_2197" x1="719.189" y1="5.85084" x2="607.295" y2="256.238" gradientUnits="userSpaceOnUse">
<stop/>
<stop offset="1" stop-opacity="0"/>
</linearGradient>
</defs>
</svg>
